<svg viewBox="0 0 605 126" xmlns="http://www.w3.org/2000/svg" xmlns:svg="http://www.w3.org/2000/svg">
 <g class="layer" display="inline">
  <title>Layer 1</title>
  <g id="svg_6" transform="translate(-0.08 9.65) matrix(2.82573 0 0 2.82573 -416.6 -616.529)">
   <path d="m147.46,236.99c0,-20 20,-30 30,-15c10,-15 30,-5 30,15c0,20 -20,30 -30,15c-10,15 -30,5 -30,-15z" fill="#268bd2" id="svg_1"/>
   <path d="m167.46,226.99c5,-5 15,-5 20,0c5,5 5,15 0,20c-5,5 -15,5 -20,0c-5,-5 -5,-15 0,-20z" fill="#002b36" fill-opacity="0.2" id="svg_2"/>
   <text fill="#839496" font-size="23.64" font-weight="bold" id="svg_3" transform="matrix(1 0 0 1 0 0)" x="220.52" y="245.41">Scribe</text>
   <path d="m312.46,235.74c16.34,-16.33 24.5,-16.33 24.5,0c0,16.33 8.17,16.33 24.5,0" fill="none" id="svg_4" stroke="#268bd2" stroke-width="3"/>
  </g>
 </g>
</svg>